<svg width="49" height="50" viewBox="0 0 49 50" fill="none" xmlns="http://www.w3.org/2000/svg">
<path d="M45.3695 33.745C42.572 36.0083 38.043 36.8993 34.5482 36.8993C34.8969 36.8993 29.5079 36.3225 26.2548 42.7821C24.8561 45.5664 21.9636 48.2552 18.9482 49.2894C10.7698 52.0737 5.79699 46.3022 7.12836 38.4903C7.78215 34.6639 7.2036 31.629 3.91085 29.3419C1.59285 27.715 -0.0157335 25.762 0.000116089 22.7749C0.000116089 18.4672 6.05853 7.33789 11.808 10.0705C15.1086 11.6337 17.6883 12.1866 19.5546 8.34423C21.2386 4.85987 21.9597 2.03978 25.7477 0.30158C27.8121 -0.641105 33.4544 0.739102 34.6273 2.87506C36.446 6.18043 37.5199 8.63457 37.4644 12.5008C37.4209 15.1856 36.5135 18.2484 39.3624 19.8593C41.9301 21.3191 46.7205 21.3668 48.3055 24.2346C50.1678 27.5678 47.9767 31.6329 45.3695 33.745Z" fill="#FFC559"/>
</svg>
