<svg width="20" height="21" viewBox="0 0 20 21" fill="none" xmlns="http://www.w3.org/2000/svg">
<path d="M13.5563 2.45002C14.3777 3.61556 14.6393 5.4547 14.5762 6.862C14.5825 6.72159 14.2631 8.88165 16.6929 10.3031C17.7404 10.9144 18.724 12.1256 19.0681 13.3577C19.9932 16.699 17.68 18.6018 14.6945 17.9309C13.2322 17.6016 12.0526 17.7822 11.1121 19.0686C10.4435 19.974 9.6621 20.588 8.51159 20.5301C6.85205 20.4557 2.67381 17.824 3.83026 15.556C4.49201 14.2539 4.75155 13.2247 3.30497 12.4068C1.993 11.6686 0.919579 11.3295 0.318276 9.77414C-0.00764998 8.92658 0.625858 6.67835 1.46989 6.24292C2.77609 5.56759 3.74091 5.17752 5.22936 5.26659C6.26291 5.33048 7.42645 5.74872 8.09845 4.6293C8.70714 3.62056 8.81195 1.69235 9.94537 1.10362C11.2631 0.411222 12.7896 1.36368 13.5563 2.45002Z" fill="#FFC559"/>
</svg>
