<svg width="58" height="48" viewBox="0 0 58 48" fill="none" xmlns="http://www.w3.org/2000/svg">
<path d="M48.177 46.4428C41.0952 49.3889 34.1624 47.899 27.7702 44.1152C20.7767 39.9659 14.1639 34.3042 8.18526 28.7944C3.22144 24.1953 -0.0490809 20.0967 0.00055727 13.0519C0.0998337 -1.00388 18.1185 -2.02151 27.4284 2.16148C34.8521 5.53487 40.9187 11.8656 46.8918 17.2743C51.8557 21.7721 57.2278 26.0732 57.9834 33.2304C58.0055 33.4039 58.0055 33.5797 57.9834 33.7533C57.9891 33.8094 57.9891 33.8658 57.9834 33.9219C57.829 40.1571 53.582 44.1995 48.177 46.4428ZM31.4599 16.3635C27.6929 12.9901 23.7384 9.61668 19.1993 7.36775C15.7191 5.60797 12.1342 3.93814 10.7609 8.56531C8.06939 17.6341 17.28 24.2178 23.1594 29.1373C26.8106 32.1959 30.6547 35.0126 34.5154 37.7844C36.7114 39.4169 39.0977 40.7653 41.6194 41.7988C46.3019 43.6654 47.4158 39.8085 47.5923 36.3058C46.5664 27.5012 37.4773 21.7834 31.4435 16.3635H31.4599Z" fill="#FE323C"/>
</svg>
