<svg width="1440" height="909" viewBox="0 0 1440 909" fill="none" xmlns="http://www.w3.org/2000/svg">
<path d="M482.632 43.9848C577.187 36.8045 661.966 -8.45185 756.28 1.39496C850.563 11.2388 911.017 79.9909 1002.88 98.3022C1173.41 132.296 1445 38.8192 1518.79 153.393C1556.62 212.137 1501.92 262.981 1427 312.396V687.999H-13V94.0805C16.2894 78.3008 46.6069 64.4585 75.2901 53.1069C195.565 5.50716 345.312 54.4123 482.632 43.9848Z" fill="white"/>
<path d="M958.382 881.313C863.837 885.622 779.122 911.489 684.794 906.145C590.498 900.802 529.946 861.982 438.061 851.834C267.482 832.993 -3.97354 886.665 -77.9296 821.903C-115.847 788.699 -61.2154 759.741 13.6332 731.541L13.0971 518.626L1453.09 515L1453.94 851.668C1424.67 860.687 1394.38 868.61 1365.71 875.117C1245.5 902.402 1095.69 875.057 958.382 881.313Z" fill="white"/>
</svg>
