<svg xmlns="http://www.w3.org/2000/svg" fill="none" viewBox="0 14.304 130 748.576" style="max-height: 500px" width="130" height="748.576">
<path fill="#F4CA2B" d="M-108.898 -52.3099C-29.1787 -25.2636 40.7832 46.2873 58.8894 138.244C77.4659 232.588 -24.5166 339.196 -12.7404 436.043C-0.554654 536.26 160.163 575.339 124.425 677.216C87.5674 782.286 -80.848 732.911 -147.954 821.495C-217.187 912.885 -152.69 1068.78 -232.651 1148.57C-302.907 1218.68 -409.659 1186.43 -490.018 1162.84C-563.505 1141.28 -620.556 1084.43 -667.161 1021.06C-706.158 968.041 -685.614 867.638 -736.105 828.248C-816.978 765.157 -976.911 835.918 -1027.02 740.324C-1068.34 661.506 -983.991 542.287 -932.407 453.791C-886.286 374.667 -797.846 338.187 -747.96 261.57C-690.522 173.353 -703.433 34.2025 -621.384 -23.8964C-542.577 -79.6995 -455.659 -2.06363 -368.852 -6.87642C-281.651 -11.711 -188.315 -79.2539 -108.898 -52.3099Z" clip-rule="evenodd" fill-rule="evenodd"/>
</svg>