<svg width="106" height="665" viewBox="0 0 106 665" fill="none" xmlns="http://www.w3.org/2000/svg">
<path fill-rule="evenodd" clip-rule="evenodd" d="M-17.4257 636.007C-54.4284 668.74 -114.408 675.422 -172.178 643.295C-231.448 610.333 -265.343 503.359 -324.224 465.387C-385.153 426.094 -450.866 499.207 -499.859 431.976C-550.388 362.637 -476.681 289.906 -509.589 211.016C-543.539 129.627 -650.569 94.3263 -674.963 12.2004C-696.396 -59.9581 -649.124 -105.617 -613.942 -140.31C-581.769 -172.036 -533.72 -178.177 -484.73 -175.389C-443.738 -173.056 -391.506 -115.119 -355.265 -125.589C-297.216 -142.358 -294.901 -265.665 -226.429 -250.009C-169.974 -237.1 -124.081 -134.308 -87.0484 -64.2606C-53.9375 -1.63127 -56.7419 65.3335 -26.0857 128.942C9.21202 202.181 92.7333 259.012 104.085 332.32C114.988 402.731 46.9462 416.223 26.3642 467.663C5.68891 519.336 19.4372 603.398 -17.4257 636.007Z" fill="#FAB536"/>
</svg>
