<svg xmlns="http://www.w3.org/2000/svg" fill="none" viewBox="0 0 115.78947368421052 850.872" style="max-height: 500px" width="115.78947368421052" height="850.872">
<path fill="#4F70B9" d="M986.474 1428.13C952.966 1466.93 884.461 1458.81 806.678 1391.94C726.876 1323.32 654.272 1149.14 573.395 1072.97C489.704 994.156 434.783 1086.01 356.582 968.062C275.93 846.418 340.37 757.598 277.521 626.722C212.682 491.698 75.9866 404.889 22.1627 271.663C-25.1288 154.605 16.502 99.1525 47.2683 56.7915C75.4033 18.0534 130.041 23.3539 188.518 42.6146C237.448 58.7308 316.614 163.435 356.039 158.492C419.187 150.576 384.176 -37.5391 469.507 7.38885C539.862 44.4321 625.298 215.884 690.293 334.483C748.404 440.521 765.597 542.208 821.121 648.995C885.051 771.949 1000.68 884.535 1036.47 1000.27C1070.84 1111.43 994.935 1111.27 986.466 1183.74C977.96 1256.54 1019.85 1389.48 986.474 1428.13Z" clip-rule="evenodd" fill-rule="evenodd"/>
</svg>