<svg width="232" height="859" viewBox="0 0 232 859" fill="none" xmlns="http://www.w3.org/2000/svg">
<path fill-rule="evenodd" clip-rule="evenodd" d="M86.7265 -76.9703C126.801 -150.701 204.231 -211.976 289.177 -222.563C376.328 -233.425 449.864 -128.968 537.85 -133.196C628.895 -137.57 696.034 -287.324 778.827 -246.089C864.214 -203.56 786.413 -47.2385 851.093 22.819C917.823 95.0965 1068.69 45.063 1122.99 126.692C1170.71 198.413 1120.54 297.43 1083.4 372.018C1049.43 440.226 987.619 490.3 922.16 529.992C867.387 563.203 782.816 536.496 737.76 581.597C665.594 653.836 695.693 810.728 601.04 851.436C522.998 885 434.739 796.374 366.987 741.057C306.411 691.599 292.109 605.03 234.512 552.178C168.194 491.324 42.5911 493.592 7.88494 411.539C-25.4498 332.727 60.7974 255.794 74.1518 173.048C87.5669 89.9271 46.8035 -3.51827 86.7265 -76.9703Z" fill="#263F78"/>
</svg>
