<svg width="13" height="13" viewBox="0 0 13 13" fill="none" xmlns="http://www.w3.org/2000/svg">
<path d="M1.2246 0.428101L4.6041 3.80761V1.78791H5.7306V5.73066H1.78785V4.60416H3.80755L0.42804 1.22466L1.2246 0.428101Z" fill="#7C5900"/>
<path d="M12.1597 1.22466L8.78016 4.60416L10.7999 4.60416V5.73066L6.85711 5.73066V1.78791H7.98361V3.80761L11.3631 0.428101L12.1597 1.22466Z" fill="#7C5900"/>
<path d="M1.78785 6.85717H5.7306V10.7999H4.6041V8.78022L1.2246 12.1597L0.42804 11.3632L3.80754 7.98367H1.78785V6.85717Z" fill="#7C5900"/>
<path d="M6.85711 6.85717H10.7999V7.98367H8.78016L12.1597 11.3632L11.3631 12.1597L7.98361 8.78022V10.7999H6.85711V6.85717Z" fill="#7C5900"/>
</svg>
